<svg xmlns="http://www.w3.org/2000/svg" id="Layer_1" data-name="Layer 1" viewBox="0 0 200 200"><defs><style>.cls-1{fill:#01152d;}.cls-2{fill:none;stroke:#005ee9;stroke-miterlimit:10;}.cls-3{fill:#005ee9;}</style></defs><path class="cls-1" d="M66.46,87.66H69l8,21H72.74l-5-14.32-5,14.32H58.45Zm-4.16,13.8h11v3.81h-11Z"></path><path class="cls-1" d="M87.52,107.7a4.62,4.62,0,0,1-1.18-3.48,4.08,4.08,0,0,1,1.33-3.33,6.14,6.14,0,0,1,4-1.11h3.75l.2,3H91.69a2.2,2.2,0,0,0-1.35.35,1.32,1.32,0,0,0-.44,1.08,1.19,1.19,0,0,0,.56,1.09,3.29,3.29,0,0,0,1.7.35,5.88,5.88,0,0,0,2.36-.36,1.19,1.19,0,0,0,.77-1.13l.3,2.18a2,2,0,0,1-.74,1.37,4.26,4.26,0,0,1-1.64.85,7.93,7.93,0,0,1-2.09.28A5,5,0,0,1,87.52,107.7Zm7.77-8.56a2,2,0,0,0-.69-1.6,3.07,3.07,0,0,0-2-.56,5.29,5.29,0,0,0-1.66.27,5.08,5.08,0,0,0-1.46.77l-2.45-2.41A6,6,0,0,1,89.44,94a8.91,8.91,0,0,1,3.25-.57A7.73,7.73,0,0,1,96,94.1,4.67,4.67,0,0,1,98.15,96a5.8,5.8,0,0,1,.73,3v9.62H95.29Z"></path><path class="cls-1" d="M102.33,93.66h4v15h-4Zm8.73,6.33a2.9,2.9,0,0,0-.65-2,2.36,2.36,0,0,0-1.83-.72,2.26,2.26,0,0,0-1.7.62,2.34,2.34,0,0,0-.6,1.72l-.3-3.32a5.34,5.34,0,0,1,1.66-2.1,3.86,3.86,0,0,1,2.33-.72,4.49,4.49,0,0,1,4.45,3A9.52,9.52,0,0,1,115,100v8.65h-4Zm8.72,0a3,3,0,0,0-.63-2,2.56,2.56,0,0,0-3.53,0,2.79,2.79,0,0,0-.61,1.94l-.74-3.46a5.6,5.6,0,0,1,1.84-2.2,4.33,4.33,0,0,1,2.52-.77,4.88,4.88,0,0,1,2.76.76,4.78,4.78,0,0,1,1.74,2.24,9.31,9.31,0,0,1,.6,3.53v8.65h-4Z"></path><path class="cls-1" d="M127.18,93.66h3.95v15h-3.95Zm8.66,5.9a2.24,2.24,0,0,0-.63-1.7,2.43,2.43,0,0,0-1.78-.61,2.27,2.27,0,0,0-1.7.62,2.34,2.34,0,0,0-.6,1.72l-.3-3.32a5.59,5.59,0,0,1,1.62-2.12,3.86,3.86,0,0,1,2.38-.7A4.47,4.47,0,0,1,138.49,95a7,7,0,0,1,1.3,4.51v9.08h-3.95Z"></path><path class="cls-1" d="M143.71,107.7a4.59,4.59,0,0,1-1.19-3.48,4.08,4.08,0,0,1,1.33-3.33,6.14,6.14,0,0,1,4-1.11h3.75l.2,3h-3.93a2.2,2.2,0,0,0-1.35.35,1.32,1.32,0,0,0-.44,1.08,1.19,1.19,0,0,0,.56,1.09,3.29,3.29,0,0,0,1.7.35,5.88,5.88,0,0,0,2.36-.36,1.19,1.19,0,0,0,.77-1.13l.3,2.18a2,2,0,0,1-.74,1.37,4.26,4.26,0,0,1-1.64.85,7.93,7.93,0,0,1-2.09.28A5,5,0,0,1,143.71,107.7Zm7.76-8.56a2,2,0,0,0-.69-1.6,3.07,3.07,0,0,0-2-.56,5.29,5.29,0,0,0-1.66.27,5.08,5.08,0,0,0-1.46.77l-2.45-2.41A6,6,0,0,1,145.62,94a8.92,8.92,0,0,1,3.26-.57,7.71,7.71,0,0,1,3.34.65A4.67,4.67,0,0,1,154.33,96a5.8,5.8,0,0,1,.73,3v9.62h-3.59Z"></path><path class="cls-2" d="M106.3,125.43v10.92a3.37,3.37,0,0,1-.18,1.12,3,3,0,0,1-.47.92,2.38,2.38,0,0,1-.71.61,1.77,1.77,0,0,1-.87.23H56.44a1.77,1.77,0,0,1-.87-.23,2.38,2.38,0,0,1-.71-.61,3,3,0,0,1-.47-.92,3.65,3.65,0,0,1-.18-1.12V63.65a3.65,3.65,0,0,1,.18-1.12,3,3,0,0,1,.47-.92,2.38,2.38,0,0,1,.71-.61,1.77,1.77,0,0,1,.87-.23h47.63a1.77,1.77,0,0,1,.87.23,2.38,2.38,0,0,1,.71.61,3,3,0,0,1,.47.92,3.37,3.37,0,0,1,.18,1.12V81.82"></path><path class="cls-3" d="M76.06,108.88h0a2,2,0,0,1,2,2V123.5a0,0,0,0,1,0,0h-4a0,0,0,0,1,0,0V110.88A2,2,0,0,1,76.06,108.88Z" transform="translate(104.43 -19.75) rotate(45)"></path><path class="cls-3" d="M81.15,87.66h0a2,2,0,0,1,2,2v19.11a0,0,0,0,1,0,0h-4a0,0,0,0,1,0,0V89.66A2,2,0,0,1,81.15,87.66Z" transform="translate(162.3 196.44) rotate(180)"></path><path class="cls-1" d="M88.85,111.17h.3v2.89h-.29v-2.49l0,.13-.87,2h-.2L87,111.74l0-.17v2.49h-.29v-2.89H87l.93,2.08Z"></path><path class="cls-1" d="M90.23,114a.81.81,0,0,1-.35-.36,1.28,1.28,0,0,1-.12-.58v-.82a1.23,1.23,0,0,1,.12-.57.84.84,0,0,1,.35-.37,1.15,1.15,0,0,1,.55-.12,1.2,1.2,0,0,1,.55.12.82.82,0,0,1,.34.37,1.23,1.23,0,0,1,.12.57V113a1.28,1.28,0,0,1-.12.58.79.79,0,0,1-.34.36,1.09,1.09,0,0,1-.55.13A1,1,0,0,1,90.23,114Zm.94-.23a.6.6,0,0,0,.25-.27.93.93,0,0,0,.09-.42v-.85a.94.94,0,0,0-.09-.43.63.63,0,0,0-.25-.26.71.71,0,0,0-.39-.1.72.72,0,0,0-.4.1.63.63,0,0,0-.25.26,1.1,1.1,0,0,0-.08.43V113a1.08,1.08,0,0,0,.08.42.6.6,0,0,0,.25.27.82.82,0,0,0,.4.09A.8.8,0,0,0,91.17,113.73Z"></path><path class="cls-1" d="M92.36,111.17h.29v2.89h-.29Zm.24,2.62h.8a.84.84,0,0,0,.53-.14.48.48,0,0,0,.17-.39h0A.7.7,0,0,0,94,113a.46.46,0,0,0-.2-.19.83.83,0,0,0-.34-.06h-.9v-.27h.9a.64.64,0,0,0,.42-.12.51.51,0,0,0,.14-.38.46.46,0,0,0-.15-.38.71.71,0,0,0-.47-.13H92.6v-.26h.9a1.06,1.06,0,0,1,.47.09.76.76,0,0,1,.29.27.93.93,0,0,1,.09.42.67.67,0,0,1-.06.28.72.72,0,0,1-.17.22.83.83,0,0,1-.3.13.51.51,0,0,1,.3.12.69.69,0,0,1,.2.25.78.78,0,0,1,.07.31h0a.78.78,0,0,1-.11.41A.71.71,0,0,1,94,114a1.06,1.06,0,0,1-.45.1H92.6Z"></path><path class="cls-1" d="M95.29,114.06H95v-2.89h.28Z"></path><path class="cls-1" d="M96,111.17h.29v2.89H96Zm.21,2.62h1.65v.27H96.23Z"></path><path class="cls-1" d="M98.31,111.17h.29v2.89h-.29Zm.2,0h1.66v.26H98.51Zm0,1.32H100v.27H98.51Zm0,1.3h1.66v.27H98.51Z"></path><path class="cls-1" d="M102.54,111.17h.34l1.07,2.89h-.32l-.92-2.59-.92,2.59h-.32Zm-.58,1.92h1.53v.26H102Z"></path><path class="cls-1" d="M104.34,111.17h.29l1.68,2.6-.12-.08v-2.52h.29v2.88h-.29l-1.72-2.62.16.11v2.51h-.29Z"></path><path class="cls-1" d="M107.15,111.17h.29v2.89h-.29Zm.27,2.62h.66a.83.83,0,0,0,.6-.19.73.73,0,0,0,.2-.56v-.85a.76.76,0,0,0-.2-.57.88.88,0,0,0-.6-.19h-.66v-.26h.65a1.42,1.42,0,0,1,.61.11.76.76,0,0,1,.36.35,1.2,1.2,0,0,1,.13.57V113a1.27,1.27,0,0,1-.13.58.79.79,0,0,1-.36.34,1.43,1.43,0,0,1-.62.12h-.64Z"></path><path class="cls-1" d="M112.09,111.17h.2l.63,2.48.61-2.48h.32l-.78,2.89h-.29l-.58-2.28-.59,2.28h-.3l-.78-2.89h.32l.61,2.48Z"></path><path class="cls-1" d="M114.84,111.17h.34l1.07,2.89h-.32l-.92-2.59-.92,2.59h-.32Zm-.58,1.92h1.52v.26h-1.52Z"></path><path class="cls-1" d="M116.16,111.17h2v.26h-2Zm.88.11h.29v2.78H117Z"></path><path class="cls-1" d="M118.89,114a.89.89,0,0,1-.35-.37,1.32,1.32,0,0,1-.12-.57v-.79a1.26,1.26,0,0,1,.12-.57.92.92,0,0,1,.35-.38,1,1,0,0,1,.53-.13,1,1,0,0,1,.46.1,1,1,0,0,1,.35.28,1.25,1.25,0,0,1,.19.44h-.29a.73.73,0,0,0-.15-.29.82.82,0,0,0-.26-.2.73.73,0,0,0-.3-.07.65.65,0,0,0-.63.39.94.94,0,0,0-.09.43V113a1,1,0,0,0,.09.43.76.76,0,0,0,.25.28.7.7,0,0,0,.38.1.73.73,0,0,0,.3-.06.82.82,0,0,0,.26-.2.73.73,0,0,0,.15-.29h.29a1.28,1.28,0,0,1-.19.43,1.09,1.09,0,0,1-.35.29,1.15,1.15,0,0,1-.46.1A1,1,0,0,1,118.89,114Z"></path><path class="cls-1" d="M120.91,111.17h.29v2.89h-.29Zm.19,1.32h1.73v.28H121.1Zm1.57-1.32H123v2.89h-.29Z"></path><path class="cls-1" d="M123.63,111.17h.29v2.89h-.29Zm.2,0h1.66v.26h-1.66Zm0,1.32h1.44v.27h-1.44Zm0,1.3h1.66v.27h-1.66Z"></path><path class="cls-1" d="M126.49,114.05a2.06,2.06,0,0,1-.35-.12,1.57,1.57,0,0,1-.3-.2l.17-.23a1.1,1.1,0,0,0,.4.24,1.46,1.46,0,0,0,.48.08.94.94,0,0,0,.57-.15.46.46,0,0,0,.21-.41h0a.4.4,0,0,0-.09-.27.76.76,0,0,0-.23-.15l-.36-.09h0l-.06,0a2.08,2.08,0,0,1-.48-.12.69.69,0,0,1-.32-.21A.65.65,0,0,1,126,112h0a.85.85,0,0,1,.12-.46.71.71,0,0,1,.35-.28,1.32,1.32,0,0,1,.55-.1,1.53,1.53,0,0,1,.3,0,1.76,1.76,0,0,1,.3.1,1.46,1.46,0,0,1,.29.17l-.17.22a1.8,1.8,0,0,0-.36-.19.92.92,0,0,0-.36-.07.9.9,0,0,0-.55.15.5.5,0,0,0-.19.42h0a.33.33,0,0,0,.1.26.57.57,0,0,0,.24.14l.39.1h.08a2.92,2.92,0,0,1,.46.13.68.68,0,0,1,.3.23.63.63,0,0,1,.12.41h0a.73.73,0,0,1-.13.45.75.75,0,0,1-.36.29,1.61,1.61,0,0,1-.57.1A2.58,2.58,0,0,1,126.49,114.05Z"></path><path class="cls-1" d="M129.13,111.17h2v.26h-2Zm.88.11h.28v2.78H130Z"></path><path class="cls-1" d="M131.52,111.16h.29v2.9h-.29Zm.18,1.41h1a.64.64,0,0,0,.28-.07.61.61,0,0,0,.19-.2.68.68,0,0,0,0-.6.46.46,0,0,0-.19-.2.53.53,0,0,0-.28-.07h-1v-.27h1a.9.9,0,0,1,.44.11.68.68,0,0,1,.29.29.94.94,0,0,1,0,.88.74.74,0,0,1-.29.29.89.89,0,0,1-.44.1h-1Zm.93.17.26-.09.74,1.41h-.34Z"></path><path class="cls-1" d="M134.82,111.17h.35l1.06,2.89h-.32l-.92-2.59-.92,2.59h-.32Zm-.57,1.92h1.52v.26h-1.52Z"></path><path class="cls-1" d="M136.62,111.17h.29v2.89h-.29Zm.28,2.62h.65a.82.82,0,0,0,.6-.19.7.7,0,0,0,.2-.56v-.85a.72.72,0,0,0-.2-.57.86.86,0,0,0-.6-.19h-.65v-.26h.64a1.36,1.36,0,0,1,.61.11.74.74,0,0,1,.37.35,1.2,1.2,0,0,1,.12.57V113a1.28,1.28,0,0,1-.12.58.82.82,0,0,1-.37.34,1.38,1.38,0,0,1-.61.12h-.64Z"></path><path class="cls-1" d="M139.56,114.06h-.29v-2.89h.29Z"></path><path class="cls-1" d="M140.29,111.17h.29l1.67,2.6-.11-.08v-2.52h.28v2.88h-.29l-1.71-2.62.16.11v2.51h-.29Z"></path><path class="cls-1" d="M145.07,112.58V113a1.5,1.5,0,0,1-.11.6.79.79,0,0,1-.34.36,1.16,1.16,0,0,1-.56.12,1.2,1.2,0,0,1-.57-.12.7.7,0,0,1-.34-.34,1.17,1.17,0,0,1-.11-.56v-.85a1.36,1.36,0,0,1,.11-.61.7.7,0,0,1,.33-.35,1.2,1.2,0,0,1,.57-.12,1.17,1.17,0,0,1,.48.09.78.78,0,0,1,.33.29,1.18,1.18,0,0,1,.19.48h-.31a.84.84,0,0,0-.15-.33.5.5,0,0,0-.23-.2.62.62,0,0,0-.31-.07.86.86,0,0,0-.41.09.64.64,0,0,0-.24.27,1.19,1.19,0,0,0-.08.46v.85a1,1,0,0,0,.08.42.6.6,0,0,0,.25.25,1,1,0,0,0,.41.08.82.82,0,0,0,.4-.09.49.49,0,0,0,.23-.26,1.19,1.19,0,0,0,.08-.46v-.16h-.7v-.27Z"></path><path class="cls-1" d="M146.73,111.17H147v2.89h-.29Zm.2,2.62h1.66v.27h-1.66Z"></path><path class="cls-1" d="M149,113.73h.33v.33H149Z"></path><path class="cls-1" d="M149.9,111.17h.28v2.89h-.28Zm.2,2.62h1.65v.27H150.1Z"></path><path class="cls-1" d="M152.13,113.73h.32v.33h-.32Z"></path><path class="cls-1" d="M153.36,114a.89.89,0,0,1-.35-.37,1.32,1.32,0,0,1-.12-.57v-.79a1.26,1.26,0,0,1,.12-.57.92.92,0,0,1,.35-.38,1,1,0,0,1,.53-.13,1,1,0,0,1,.46.1,1,1,0,0,1,.35.28,1.25,1.25,0,0,1,.19.44h-.29a.73.73,0,0,0-.15-.29.82.82,0,0,0-.26-.2.73.73,0,0,0-.3-.07.65.65,0,0,0-.63.39.94.94,0,0,0-.09.43V113a1,1,0,0,0,.09.43.76.76,0,0,0,.25.28.7.7,0,0,0,.38.1.73.73,0,0,0,.3-.06.82.82,0,0,0,.26-.2.73.73,0,0,0,.15-.29h.29a1.28,1.28,0,0,1-.19.43,1.09,1.09,0,0,1-.35.29,1.15,1.15,0,0,1-.46.1A1,1,0,0,1,153.36,114Z"></path></svg>